# xmcd
#
# Track frame offsets: 
#        150
#        16144
#        27750
#        42005
#        55257
#        70754
#        107325
#        123872
#        142247
#        153507
#        167822
#        184650
#        200189
#        212288
#        227632
#        242972
#        256528
#        272597
#        293977
#        310494
#        324257
#
# Disc length: 4597 seconds
#
# Revision: 1
# Processed by: cddbd v1.5.2PL0 Copyright (c) Steve Scherf et al.
# Submitted via: ExactAudioCopy v1.3
#
DISCID=2211f315
DTITLE=Ahmad Jamal Trio - Pershing Lounge and Spotlite Club Performances
DTITLE=CD1 
DYEAR=1958
DGENRE=Jazz
TTITLE0=But not for me
TTITLE1=The surrey with the fringe on top
TTITLE2=Moonlight in Vermont
TTITLE3=Music music music
TTITLE4=There is no greater love
TTITLE5=Poinciana
TTITLE6=Woody 'n you
TTITLE7=What's new
TTITLE8=Too late now
TTITLE9=All the things you are
TTITLE10=Cherokee
TTITLE11=It might as well be spring
TTITLE12=I'll remember April
TTITLE13=My funny Valentine
TTITLE14=Gone with the wind
TTITLE15=Billy Boy
TTITLE16=It's you or no one
TTITLE17=They can't take that away from me
TTITLE18=Poor butterfly
TTITLE19=Poinciana (single version)
TTITLE20=Poinciana (1955 studio version)
EXTD=YEAR: 1958
EXTT0=
EXTT1=
EXTT2=
EXTT3=
EXTT4=
EXTT5=
EXTT6=
EXTT7=
EXTT8=
EXTT9=
EXTT10=
EXTT11=
EXTT12=
EXTT13=
EXTT14=
EXTT15=
EXTT16=
EXTT17=
EXTT18=
EXTT19=
EXTT20=
PLAYORDER=
